<svg width="180" height="160" viewBox="0 0 180 160" fill="none" xmlns="http://www.w3.org/2000/svg">
<path d="M20.5 117.5L10 133.5" stroke="url(#paint0_linear_568_119)" stroke-opacity="0.3" stroke-width="2" stroke-linecap="round"/>
<path d="M28 141L17.5 157" stroke="white" stroke-opacity="0.3" stroke-width="2" stroke-linecap="round"/>
<path d="M48 107L37.5 123" stroke="url(#paint1_linear_568_119)" stroke-opacity="0.3" stroke-width="2" stroke-linecap="round"/>
<path d="M67 118L56.5 134" stroke="url(#paint2_linear_568_119)" stroke-opacity="0.3" stroke-width="2" stroke-linecap="round"/>
<path d="M74.5 141.5L64 157.5" stroke="white" stroke-opacity="0.3" stroke-width="2" stroke-linecap="round"/>
<path d="M95 107L84.5 123" stroke="url(#paint3_linear_568_119)" stroke-opacity="0.3" stroke-width="2" stroke-linecap="round"/>
<path d="M119 119L108.5 135" stroke="url(#paint4_linear_568_119)" stroke-opacity="0.3" stroke-width="2" stroke-linecap="round"/>
<path d="M126.5 142.5L116 158.5" stroke="white" stroke-opacity="0.3" stroke-width="2" stroke-linecap="round"/>
<path d="M147 106L136.5 122" stroke="url(#paint5_linear_568_119)" stroke-opacity="0.3" stroke-width="2" stroke-linecap="round"/>
<path d="M70 105L77.5 94H88L83.5 100H92.5L71 118.5L79 105H70Z" fill="url(#paint6_linear_568_119)"/>
<path d="M11.5 108.5L1 124.5" stroke="url(#paint7_linear_568_119)" stroke-opacity="0.3" stroke-width="2" stroke-linecap="round"/>
<path d="M19 132L8.5 148" stroke="white" stroke-opacity="0.3" stroke-width="2" stroke-linecap="round"/>
<path d="M39 98L28.5 114" stroke="url(#paint8_linear_568_119)" stroke-opacity="0.3" stroke-width="2" stroke-linecap="round"/>
<path d="M58 109L47.5 125" stroke="url(#paint9_linear_568_119)" stroke-opacity="0.3" stroke-width="2" stroke-linecap="round"/>
<path d="M65.5 132.5L55 148.5" stroke="white" stroke-opacity="0.3" stroke-width="2" stroke-linecap="round"/>
<path d="M86 98L75.5 114" stroke="url(#paint10_linear_568_119)" stroke-opacity="0.3" stroke-width="2" stroke-linecap="round"/>
<path d="M110 110L99.5 126" stroke="url(#paint11_linear_568_119)" stroke-opacity="0.3" stroke-width="2" stroke-linecap="round"/>
<path d="M117.5 133.5L107 149.5" stroke="white" stroke-opacity="0.3" stroke-width="2" stroke-linecap="round"/>
<path d="M138 97L127.5 113" stroke="url(#paint12_linear_568_119)" stroke-opacity="0.3" stroke-width="2" stroke-linecap="round"/>
<path fill-rule="evenodd" clip-rule="evenodd" d="M39.222 42.0106C42.614 18.2594 63.0383 0 87.7273 0C103.814 0 118.09 7.75189 127.024 19.7239C130.885 18.4864 135.001 17.8182 139.273 17.8182C161.414 17.8182 179.364 35.7675 179.364 57.9091C179.364 80.0507 161.414 98 139.273 98H87.7273H40H36.1818V97.7418C22.5241 95.8796 12 84.1688 12 70C12 54.7962 24.1177 42.4227 39.222 42.0106Z" fill="#B4B4B4"/>
<defs>
<linearGradient id="paint0_linear_568_119" x1="15.25" y1="117.5" x2="15.25" y2="133.5" gradientUnits="userSpaceOnUse">
<stop stop-color="white" stop-opacity="0"/>
<stop offset="0.895833" stop-color="white"/>
</linearGradient>
<linearGradient id="paint1_linear_568_119" x1="42.75" y1="107" x2="42.75" y2="123" gradientUnits="userSpaceOnUse">
<stop stop-color="white" stop-opacity="0"/>
<stop offset="0.895833" stop-color="white"/>
</linearGradient>
<linearGradient id="paint2_linear_568_119" x1="61.75" y1="118" x2="61.75" y2="134" gradientUnits="userSpaceOnUse">
<stop stop-color="white" stop-opacity="0"/>
<stop offset="0.895833" stop-color="white"/>
</linearGradient>
<linearGradient id="paint3_linear_568_119" x1="89.75" y1="107" x2="89.75" y2="123" gradientUnits="userSpaceOnUse">
<stop stop-color="white" stop-opacity="0"/>
<stop offset="0.895833" stop-color="white"/>
</linearGradient>
<linearGradient id="paint4_linear_568_119" x1="113.75" y1="119" x2="113.75" y2="135" gradientUnits="userSpaceOnUse">
<stop stop-color="white" stop-opacity="0"/>
<stop offset="0.895833" stop-color="white"/>
</linearGradient>
<linearGradient id="paint5_linear_568_119" x1="141.75" y1="106" x2="141.75" y2="122" gradientUnits="userSpaceOnUse">
<stop stop-color="white" stop-opacity="0"/>
<stop offset="0.895833" stop-color="white"/>
</linearGradient>
<linearGradient id="paint6_linear_568_119" x1="81" y1="94" x2="81" y2="101" gradientUnits="userSpaceOnUse">
<stop stop-color="#FFE600" stop-opacity="0"/>
<stop offset="1" stop-color="#FFE600"/>
</linearGradient>
<linearGradient id="paint7_linear_568_119" x1="6.25" y1="108.5" x2="6.25" y2="124.5" gradientUnits="userSpaceOnUse">
<stop stop-color="white" stop-opacity="0"/>
<stop offset="0.895833" stop-color="white"/>
</linearGradient>
<linearGradient id="paint8_linear_568_119" x1="33.75" y1="98" x2="33.75" y2="114" gradientUnits="userSpaceOnUse">
<stop stop-color="white" stop-opacity="0"/>
<stop offset="0.895833" stop-color="white"/>
</linearGradient>
<linearGradient id="paint9_linear_568_119" x1="52.75" y1="109" x2="52.75" y2="125" gradientUnits="userSpaceOnUse">
<stop stop-color="white" stop-opacity="0"/>
<stop offset="0.895833" stop-color="white"/>
</linearGradient>
<linearGradient id="paint10_linear_568_119" x1="80.75" y1="98" x2="80.75" y2="114" gradientUnits="userSpaceOnUse">
<stop stop-color="white" stop-opacity="0"/>
<stop offset="0.895833" stop-color="white"/>
</linearGradient>
<linearGradient id="paint11_linear_568_119" x1="104.75" y1="110" x2="104.75" y2="126" gradientUnits="userSpaceOnUse">
<stop stop-color="white" stop-opacity="0"/>
<stop offset="0.895833" stop-color="white"/>
</linearGradient>
<linearGradient id="paint12_linear_568_119" x1="132.75" y1="97" x2="132.75" y2="113" gradientUnits="userSpaceOnUse">
<stop stop-color="white" stop-opacity="0"/>
<stop offset="0.895833" stop-color="white"/>
</linearGradient>
</defs>
</svg>
