<svg width="171" height="160" viewBox="0 0 171 160" fill="none" xmlns="http://www.w3.org/2000/svg">
<path d="M11.5 117.5L1 133.5" stroke="url(#paint0_linear_568_77)" stroke-opacity="0.3" stroke-width="2" stroke-linecap="round"/>
<path d="M19 141L8.5 157" stroke="white" stroke-opacity="0.3" stroke-width="2" stroke-linecap="round"/>
<path d="M39 107L28.5 123" stroke="url(#paint1_linear_568_77)" stroke-opacity="0.3" stroke-width="2" stroke-linecap="round"/>
<path d="M58 118L47.5 134" stroke="url(#paint2_linear_568_77)" stroke-opacity="0.3" stroke-width="2" stroke-linecap="round"/>
<path d="M65.5 141.5L55 157.5" stroke="white" stroke-opacity="0.3" stroke-width="2" stroke-linecap="round"/>
<path d="M86 107L75.5 123" stroke="url(#paint3_linear_568_77)" stroke-opacity="0.3" stroke-width="2" stroke-linecap="round"/>
<path d="M110 119L99.5 135" stroke="url(#paint4_linear_568_77)" stroke-opacity="0.3" stroke-width="2" stroke-linecap="round"/>
<path d="M117.5 142.5L107 158.5" stroke="white" stroke-opacity="0.3" stroke-width="2" stroke-linecap="round"/>
<path d="M138 106L127.5 122" stroke="url(#paint5_linear_568_77)" stroke-opacity="0.3" stroke-width="2" stroke-linecap="round"/>
<path fill-rule="evenodd" clip-rule="evenodd" d="M30.222 42.0106C33.614 18.2594 54.0383 0 78.7273 0C94.8139 0 109.09 7.75189 118.024 19.7239C121.885 18.4864 126.001 17.8182 130.273 17.8182C152.414 17.8182 170.364 35.7675 170.364 57.9091C170.364 80.0507 152.414 98 130.273 98H78.7273H31H27.1818V97.7418C13.5241 95.8796 3 84.1688 3 70C3 54.7962 15.1177 42.4227 30.222 42.0106Z" fill="#B4B4B4"/>
<defs>
<linearGradient id="paint0_linear_568_77" x1="6.25" y1="117.5" x2="6.25" y2="133.5" gradientUnits="userSpaceOnUse">
<stop stop-color="white" stop-opacity="0"/>
<stop offset="0.895833" stop-color="white"/>
</linearGradient>
<linearGradient id="paint1_linear_568_77" x1="33.75" y1="107" x2="33.75" y2="123" gradientUnits="userSpaceOnUse">
<stop stop-color="white" stop-opacity="0"/>
<stop offset="0.895833" stop-color="white"/>
</linearGradient>
<linearGradient id="paint2_linear_568_77" x1="52.75" y1="118" x2="52.75" y2="134" gradientUnits="userSpaceOnUse">
<stop stop-color="white" stop-opacity="0"/>
<stop offset="0.895833" stop-color="white"/>
</linearGradient>
<linearGradient id="paint3_linear_568_77" x1="80.75" y1="107" x2="80.75" y2="123" gradientUnits="userSpaceOnUse">
<stop stop-color="white" stop-opacity="0"/>
<stop offset="0.895833" stop-color="white"/>
</linearGradient>
<linearGradient id="paint4_linear_568_77" x1="104.75" y1="119" x2="104.75" y2="135" gradientUnits="userSpaceOnUse">
<stop stop-color="white" stop-opacity="0"/>
<stop offset="0.895833" stop-color="white"/>
</linearGradient>
<linearGradient id="paint5_linear_568_77" x1="132.75" y1="106" x2="132.75" y2="122" gradientUnits="userSpaceOnUse">
<stop stop-color="white" stop-opacity="0"/>
<stop offset="0.895833" stop-color="white"/>
</linearGradient>
</defs>
</svg>
