<svg width="168" height="139" viewBox="0 0 168 139" fill="none" xmlns="http://www.w3.org/2000/svg">
<path fill-rule="evenodd" clip-rule="evenodd" d="M39.25 98C39.25 97.4477 38.8023 97 38.25 97C37.6977 97 37.25 97.4477 37.25 98V101.836L34.5377 99.1235C34.1471 98.7329 33.514 98.7329 33.1235 99.1235C32.7329 99.514 32.7329 100.147 33.1235 100.538L35.8358 103.25H32C31.4477 103.25 31 103.698 31 104.25C31 104.802 31.4477 105.25 32 105.25H35.8358L33.1235 107.962C32.7329 108.353 32.7329 108.986 33.1235 109.377C33.514 109.767 34.1471 109.767 34.5377 109.377L37.25 106.664V110.5C37.25 111.052 37.6977 111.5 38.25 111.5C38.8023 111.5 39.25 111.052 39.25 110.5V106.664L41.9623 109.377C42.3528 109.767 42.986 109.767 43.3765 109.377C43.767 108.986 43.767 108.353 43.3765 107.962L40.6642 105.25H44.5C45.0523 105.25 45.5 104.802 45.5 104.25C45.5 103.698 45.0523 103.25 44.5 103.25H40.6642L43.3765 100.538C43.767 100.147 43.767 99.514 43.3765 99.1235C42.986 98.733 42.3528 98.733 41.9623 99.1235L39.25 101.836V98Z" fill="url(#paint0_linear_568_183)"/>
<path fill-rule="evenodd" clip-rule="evenodd" d="M23.25 122C23.25 121.448 22.8023 121 22.25 121C21.6977 121 21.25 121.448 21.25 122V125.836L18.5377 123.123C18.1471 122.733 17.514 122.733 17.1235 123.123C16.7329 123.514 16.7329 124.147 17.1235 124.538L19.8358 127.25H16C15.4477 127.25 15 127.698 15 128.25C15 128.802 15.4477 129.25 16 129.25H19.8358L17.1235 131.962C16.7329 132.353 16.7329 132.986 17.1235 133.377C17.514 133.767 18.1471 133.767 18.5377 133.377L21.25 130.664V134.5C21.25 135.052 21.6977 135.5 22.25 135.5C22.8023 135.5 23.25 135.052 23.25 134.5V130.664L25.9623 133.377C26.3528 133.767 26.986 133.767 27.3765 133.377C27.767 132.986 27.767 132.353 27.3765 131.962L24.6642 129.25H28.5C29.0523 129.25 29.5 128.802 29.5 128.25C29.5 127.698 29.0523 127.25 28.5 127.25H24.6642L27.3765 124.538C27.767 124.147 27.767 123.514 27.3765 123.123C26.986 122.733 26.3528 122.733 25.9623 123.123L23.25 125.836V122Z" fill="url(#paint1_linear_568_183)"/>
<path fill-rule="evenodd" clip-rule="evenodd" d="M53.25 125C53.25 124.448 52.8023 124 52.25 124C51.6977 124 51.25 124.448 51.25 125V128.836L48.5377 126.123C48.1471 125.733 47.514 125.733 47.1235 126.123C46.7329 126.514 46.7329 127.147 47.1235 127.538L49.8358 130.25H46C45.4477 130.25 45 130.698 45 131.25C45 131.802 45.4477 132.25 46 132.25H49.8358L47.1235 134.962C46.7329 135.353 46.7329 135.986 47.1235 136.377C47.514 136.767 48.1471 136.767 48.5377 136.377L51.25 133.664V137.5C51.25 138.052 51.6977 138.5 52.25 138.5C52.8023 138.5 53.25 138.052 53.25 137.5V133.664L55.9623 136.377C56.3528 136.767 56.986 136.767 57.3765 136.377C57.767 135.986 57.767 135.353 57.3765 134.962L54.6642 132.25H58.5C59.0523 132.25 59.5 131.802 59.5 131.25C59.5 130.698 59.0523 130.25 58.5 130.25H54.6642L57.3765 127.538C57.767 127.147 57.767 126.514 57.3765 126.123C56.986 125.733 56.3528 125.733 55.9623 126.123L53.25 128.836V125Z" fill="url(#paint2_linear_568_183)"/>
<path fill-rule="evenodd" clip-rule="evenodd" d="M71.25 107C71.25 106.448 70.8023 106 70.25 106C69.6977 106 69.25 106.448 69.25 107V110.836L66.5377 108.123C66.1471 107.733 65.514 107.733 65.1235 108.123C64.7329 108.514 64.7329 109.147 65.1235 109.538L67.8358 112.25H64C63.4477 112.25 63 112.698 63 113.25C63 113.802 63.4477 114.25 64 114.25H67.8358L65.1235 116.962C64.7329 117.353 64.7329 117.986 65.1235 118.377C65.514 118.767 66.1471 118.767 66.5377 118.377L69.25 115.664V119.5C69.25 120.052 69.6977 120.5 70.25 120.5C70.8023 120.5 71.25 120.052 71.25 119.5V115.664L73.9623 118.377C74.3528 118.767 74.986 118.767 75.3765 118.377C75.767 117.986 75.767 117.353 75.3765 116.962L72.6642 114.25H76.5C77.0523 114.25 77.5 113.802 77.5 113.25C77.5 112.698 77.0523 112.25 76.5 112.25H72.6642L75.3765 109.538C75.767 109.147 75.767 108.514 75.3765 108.123C74.986 107.733 74.3528 107.733 73.9623 108.123L71.25 110.836V107Z" fill="url(#paint3_linear_568_183)"/>
<path fill-rule="evenodd" clip-rule="evenodd" d="M105.25 98C105.25 97.4477 104.802 97 104.25 97C103.698 97 103.25 97.4477 103.25 98V101.836L100.538 99.1235C100.147 98.7329 99.514 98.7329 99.1235 99.1235C98.7329 99.514 98.7329 100.147 99.1235 100.538L101.836 103.25H98C97.4477 103.25 97 103.698 97 104.25C97 104.802 97.4477 105.25 98 105.25H101.836L99.1235 107.962C98.7329 108.353 98.7329 108.986 99.1235 109.377C99.514 109.767 100.147 109.767 100.538 109.377L103.25 106.664V110.5C103.25 111.052 103.698 111.5 104.25 111.5C104.802 111.5 105.25 111.052 105.25 110.5V106.664L107.962 109.377C108.353 109.767 108.986 109.767 109.377 109.377C109.767 108.986 109.767 108.353 109.377 107.962L106.664 105.25H110.5C111.052 105.25 111.5 104.802 111.5 104.25C111.5 103.698 111.052 103.25 110.5 103.25H106.664L109.377 100.538C109.767 100.147 109.767 99.514 109.377 99.1235C108.986 98.733 108.353 98.733 107.962 99.1235L105.25 101.836V98Z" fill="url(#paint4_linear_568_183)"/>
<path fill-rule="evenodd" clip-rule="evenodd" d="M100.25 122C100.25 121.448 99.8023 121 99.25 121C98.6977 121 98.25 121.448 98.25 122V125.836L95.5377 123.123C95.1471 122.733 94.514 122.733 94.1235 123.123C93.7329 123.514 93.7329 124.147 94.1235 124.538L96.8358 127.25H93C92.4477 127.25 92 127.698 92 128.25C92 128.802 92.4477 129.25 93 129.25H96.8358L94.1235 131.962C93.7329 132.353 93.7329 132.986 94.1235 133.377C94.514 133.767 95.1471 133.767 95.5377 133.377L98.25 130.664V134.5C98.25 135.052 98.6977 135.5 99.25 135.5C99.8023 135.5 100.25 135.052 100.25 134.5V130.664L102.962 133.377C103.353 133.767 103.986 133.767 104.377 133.377C104.767 132.986 104.767 132.353 104.377 131.962L101.664 129.25H105.5C106.052 129.25 106.5 128.802 106.5 128.25C106.5 127.698 106.052 127.25 105.5 127.25H101.664L104.377 124.538C104.767 124.147 104.767 123.514 104.377 123.123C103.986 122.733 103.353 122.733 102.962 123.123L100.25 125.836V122Z" fill="url(#paint5_linear_568_183)"/>
<path fill-rule="evenodd" clip-rule="evenodd" d="M132.25 110C132.25 109.448 131.802 109 131.25 109C130.698 109 130.25 109.448 130.25 110V113.836L127.538 111.123C127.147 110.733 126.514 110.733 126.123 111.123C125.733 111.514 125.733 112.147 126.123 112.538L128.836 115.25H125C124.448 115.25 124 115.698 124 116.25C124 116.802 124.448 117.25 125 117.25H128.836L126.123 119.962C125.733 120.353 125.733 120.986 126.123 121.377C126.514 121.767 127.147 121.767 127.538 121.377L130.25 118.664V122.5C130.25 123.052 130.698 123.5 131.25 123.5C131.802 123.5 132.25 123.052 132.25 122.5V118.664L134.962 121.377C135.353 121.767 135.986 121.767 136.377 121.377C136.767 120.986 136.767 120.353 136.377 119.962L133.664 117.25H137.5C138.052 117.25 138.5 116.802 138.5 116.25C138.5 115.698 138.052 115.25 137.5 115.25H133.664L136.377 112.538C136.767 112.147 136.767 111.514 136.377 111.123C135.986 110.733 135.353 110.733 134.962 111.123L132.25 113.836V110Z" fill="url(#paint6_linear_568_183)"/>
<path fill-rule="evenodd" clip-rule="evenodd" d="M27.222 42.0106C30.614 18.2594 51.0383 0 75.7273 0C91.8139 0 106.09 7.75189 115.024 19.7239C118.885 18.4864 123.001 17.8182 127.273 17.8182C149.414 17.8182 167.364 35.7675 167.364 57.9091C167.364 80.0507 149.414 98 127.273 98H75.7273H28H24.1818V97.7418C10.5241 95.8796 0 84.1688 0 70C0 54.7962 12.1177 42.4227 27.222 42.0106Z" fill="#D8D8D8"/>
<defs>
<linearGradient id="paint0_linear_568_183" x1="38.25" y1="92" x2="38.25" y2="111.5" gradientUnits="userSpaceOnUse">
<stop stop-color="white" stop-opacity="0"/>
<stop offset="1" stop-color="white"/>
</linearGradient>
<linearGradient id="paint1_linear_568_183" x1="22.25" y1="116" x2="22.25" y2="135.5" gradientUnits="userSpaceOnUse">
<stop stop-color="white" stop-opacity="0"/>
<stop offset="1" stop-color="white"/>
</linearGradient>
<linearGradient id="paint2_linear_568_183" x1="52.25" y1="119" x2="52.25" y2="138.5" gradientUnits="userSpaceOnUse">
<stop stop-color="white" stop-opacity="0"/>
<stop offset="1" stop-color="white"/>
</linearGradient>
<linearGradient id="paint3_linear_568_183" x1="70.25" y1="101" x2="70.25" y2="120.5" gradientUnits="userSpaceOnUse">
<stop stop-color="white" stop-opacity="0"/>
<stop offset="1" stop-color="white"/>
</linearGradient>
<linearGradient id="paint4_linear_568_183" x1="104.25" y1="92" x2="104.25" y2="111.5" gradientUnits="userSpaceOnUse">
<stop stop-color="white" stop-opacity="0"/>
<stop offset="1" stop-color="white"/>
</linearGradient>
<linearGradient id="paint5_linear_568_183" x1="99.25" y1="116" x2="99.25" y2="135.5" gradientUnits="userSpaceOnUse">
<stop stop-color="white" stop-opacity="0"/>
<stop offset="1" stop-color="white"/>
</linearGradient>
<linearGradient id="paint6_linear_568_183" x1="131.25" y1="104" x2="131.25" y2="123.5" gradientUnits="userSpaceOnUse">
<stop stop-color="white" stop-opacity="0"/>
<stop offset="1" stop-color="white"/>
</linearGradient>
</defs>
</svg>
